<svg width="308" height="397" viewBox="0 0 308 397" fill="none" xmlns="http://www.w3.org/2000/svg">
<g filter="url(#filter0_d_19_337)">
<path d="M335.759 752.425H339.317V-237.777H315.22C208.047 -169.664 10.7422 -10.6785 40.1442 222.758C70.4612 463.273 240.192 529.827 335.759 752.425Z" fill="url(#paint0_linear_19_337)" fill-opacity="0.04" shape-rendering="crispEdges"/>
<path d="M126.864 -69.2031C67.8709 8.16594 25.9608 106.144 40.6406 222.695C55.7828 342.822 105.732 419.505 163.877 494.003C221.968 568.431 288.281 640.722 336.087 751.925H338.816V-237.277H315.365C261.811 -203.228 185.817 -146.519 126.864 -69.2031Z" stroke="url(#paint1_linear_19_337)" shape-rendering="crispEdges"/>
</g>
<g filter="url(#filter1_d_19_337)">
<path d="M342.305 504.036H344.492V-104.203H329.692C263.859 -62.365 142.664 35.2935 160.724 178.685C179.347 326.423 283.603 367.305 342.305 504.036Z" fill="url(#paint2_linear_19_337)" fill-opacity="0.04" shape-rendering="crispEdges"/>
<path d="M214.146 -0.538086C177.929 46.9592 152.211 107.094 161.22 178.623C170.515 252.362 201.172 299.431 236.879 345.181C272.531 390.861 313.259 435.267 342.633 503.536H343.992V-103.703H329.838C296.954 -82.7916 250.321 -47.9821 214.146 -0.538086Z" stroke="url(#paint3_linear_19_337)" shape-rendering="crispEdges"/>
</g>
<defs>
<filter id="filter0_d_19_337" x="0.177322" y="-284.045" width="406.999" height="1095.08" filterUnits="userSpaceOnUse" color-interpolation-filters="sRGB">
<feFlood flood-opacity="0" result="BackgroundImageFix"/>
<feColorMatrix in="SourceAlpha" type="matrix" values="0 0 0 0 0 0 0 0 0 0 0 0 0 0 0 0 0 0 127 0" result="hardAlpha"/>
<feOffset dx="15.4225" dy="6.16901"/>
<feGaussianBlur stdDeviation="26.2183"/>
<feComposite in2="hardAlpha" operator="out"/>
<feColorMatrix type="matrix" values="0 0 0 0 0 0 0 0 0 0 0 0 0 0 0 0 0 0 0.08 0"/>
<feBlend mode="normal" in2="BackgroundImageFix" result="effect1_dropShadow_19_337"/>
<feBlend mode="normal" in="SourceGraphic" in2="effect1_dropShadow_19_337" result="shape"/>
</filter>
<filter id="filter1_d_19_337" x="121.896" y="-150.471" width="290.455" height="713.113" filterUnits="userSpaceOnUse" color-interpolation-filters="sRGB">
<feFlood flood-opacity="0" result="BackgroundImageFix"/>
<feColorMatrix in="SourceAlpha" type="matrix" values="0 0 0 0 0 0 0 0 0 0 0 0 0 0 0 0 0 0 127 0" result="hardAlpha"/>
<feOffset dx="15.4225" dy="6.16901"/>
<feGaussianBlur stdDeviation="26.2183"/>
<feComposite in2="hardAlpha" operator="out"/>
<feColorMatrix type="matrix" values="0 0 0 0 0 0 0 0 0 0 0 0 0 0 0 0 0 0 0.08 0"/>
<feBlend mode="normal" in2="BackgroundImageFix" result="effect1_dropShadow_19_337"/>
<feBlend mode="normal" in="SourceGraphic" in2="effect1_dropShadow_19_337" result="shape"/>
</filter>
<linearGradient id="paint0_linear_19_337" x1="266.355" y1="-87.5414" x2="219.233" y2="650.63" gradientUnits="userSpaceOnUse">
<stop stop-color="white"/>
<stop offset="0.804873" stop-color="white" stop-opacity="0"/>
</linearGradient>
<linearGradient id="paint1_linear_19_337" x1="208.659" y1="-212.179" x2="222.965" y2="735.256" gradientUnits="userSpaceOnUse">
<stop offset="0.0191761" stop-color="white" stop-opacity="0.02"/>
<stop offset="0.614679" stop-color="white" stop-opacity="0"/>
</linearGradient>
<linearGradient id="paint2_linear_19_337" x1="299.675" y1="-11.9195" x2="270.73" y2="441.508" gradientUnits="userSpaceOnUse">
<stop stop-color="white"/>
<stop offset="1" stop-color="white" stop-opacity="0"/>
</linearGradient>
<linearGradient id="paint3_linear_19_337" x1="306.971" y1="-89.8311" x2="293.239" y2="493.661" gradientUnits="userSpaceOnUse">
<stop stop-color="white" stop-opacity="0.02"/>
<stop offset="1" stop-color="white" stop-opacity="0.01"/>
</linearGradient>
</defs>
</svg>
